<?xml version="1.0" encoding="UTF-8"?>
<svg xmlns="http://www.w3.org/2000/svg" width="341" height="1433">
   <defs>
      <style type="text/css">
    @namespace "http://www.w3.org/2000/svg";
    .line                 {fill: none; stroke: #332900; stroke-width: 1;}
    .bold-line            {stroke: #141000; shape-rendering: crispEdges; stroke-width: 2;}
    .thin-line            {stroke: #1F1800; shape-rendering: crispEdges}
    .filled               {fill: #332900; stroke: none;}
    text.terminal         {font-family: Verdana, Sans-serif;
                            font-size: 12px;
                            fill: #141000;
                            font-weight: bold;
                          }
    text.nonterminal      {font-family: Verdana, Sans-serif;
                            font-size: 12px;
                            fill: #1A1400;
                            font-weight: normal;
                          }
    text.regexp           {font-family: Verdana, Sans-serif;
                            font-size: 12px;
                            fill: #1F1800;
                            font-weight: normal;
                          }
    rect, circle, polygon {fill: #332900; stroke: #332900;}
    rect.terminal         {fill: #FFDB4D; stroke: #332900; stroke-width: 1;}
    rect.nonterminal      {fill: #FFEC9E; stroke: #332900; stroke-width: 1;}
    rect.text             {fill: none; stroke: none;}
    polygon.regexp        {fill: #FFF4C7; stroke: #332900; stroke-width: 1;}
  </style>
   </defs>
   <polygon points="9 17 1 13 1 21"/>
   <polygon points="17 17 9 13 9 21"/>
   <rect x="51" y="3" width="64" height="32" rx="10"/>
   <rect x="49"
         y="1"
         width="64"
         height="32"
         class="terminal"
         rx="10"/>
   <text class="terminal" x="59" y="21">IPUSH</text>
   <rect x="155" y="35" width="26" height="32" rx="10"/>
   <rect x="153"
         y="33"
         width="26"
         height="32"
         class="terminal"
         rx="10"/>
   <text class="terminal" x="163" y="53">-</text>
   <a xmlns:xlink="http://www.w3.org/1999/xlink"
      xlink:href="#NUMBER"
      xlink:title="NUMBER">
      <rect x="221" y="3" width="72" height="32"/>
      <rect x="219" y="1" width="72" height="32" class="nonterminal"/>
      <text class="nonterminal" x="229" y="21">NUMBER</text>
   </a>
   <rect x="51" y="79" width="48" height="32" rx="10"/>
   <rect x="49"
         y="77"
         width="48"
         height="32"
         class="terminal"
         rx="10"/>
   <text class="terminal" x="59" y="97">POP</text>
   <rect x="51" y="123" width="48" height="32" rx="10"/>
   <rect x="49"
         y="121"
         width="48"
         height="32"
         class="terminal"
         rx="10"/>
   <text class="terminal" x="59" y="141">DUP</text>
   <rect x="51" y="167" width="68" height="32" rx="10"/>
   <rect x="49"
         y="165"
         width="68"
         height="32"
         class="terminal"
         rx="10"/>
   <text class="terminal" x="59" y="185">LOADG</text>
   <a xmlns:xlink="http://www.w3.org/1999/xlink"
      xlink:href="#NUMBER"
      xlink:title="NUMBER">
      <rect x="139" y="167" width="72" height="32"/>
      <rect x="137" y="165" width="72" height="32" class="nonterminal"/>
      <text class="nonterminal" x="147" y="185">NUMBER</text>
   </a>
   <rect x="51" y="211" width="76" height="32" rx="10"/>
   <rect x="49"
         y="209"
         width="76"
         height="32"
         class="terminal"
         rx="10"/>
   <text class="terminal" x="59" y="229">STOREG</text>
   <a xmlns:xlink="http://www.w3.org/1999/xlink"
      xlink:href="#NUMBER"
      xlink:title="NUMBER">
      <rect x="147" y="211" width="72" height="32"/>
      <rect x="145" y="209" width="72" height="32" class="nonterminal"/>
      <text class="nonterminal" x="155" y="229">NUMBER</text>
   </a>
   <rect x="51" y="255" width="68" height="32" rx="10"/>
   <rect x="49"
         y="253"
         width="68"
         height="32"
         class="terminal"
         rx="10"/>
   <text class="terminal" x="59" y="273">LOADA</text>
   <a xmlns:xlink="http://www.w3.org/1999/xlink"
      xlink:href="#NUMBER"
      xlink:title="NUMBER">
      <rect x="139" y="255" width="72" height="32"/>
      <rect x="137" y="253" width="72" height="32" class="nonterminal"/>
      <text class="nonterminal" x="147" y="273">NUMBER</text>
   </a>
   <rect x="51" y="299" width="74" height="32" rx="10"/>
   <rect x="49"
         y="297"
         width="74"
         height="32"
         class="terminal"
         rx="10"/>
   <text class="terminal" x="59" y="317">STOREA</text>
   <a xmlns:xlink="http://www.w3.org/1999/xlink"
      xlink:href="#NUMBER"
      xlink:title="NUMBER">
      <rect x="145" y="299" width="72" height="32"/>
      <rect x="143" y="297" width="72" height="32" class="nonterminal"/>
      <text class="nonterminal" x="153" y="317">NUMBER</text>
   </a>
   <rect x="51" y="343" width="66" height="32" rx="10"/>
   <rect x="49"
         y="341"
         width="66"
         height="32"
         class="terminal"
         rx="10"/>
   <text class="terminal" x="59" y="361">LOADL</text>
   <a xmlns:xlink="http://www.w3.org/1999/xlink"
      xlink:href="#NUMBER"
      xlink:title="NUMBER">
      <rect x="137" y="343" width="72" height="32"/>
      <rect x="135" y="341" width="72" height="32" class="nonterminal"/>
      <text class="nonterminal" x="145" y="361">NUMBER</text>
   </a>
   <rect x="51" y="387" width="74" height="32" rx="10"/>
   <rect x="49"
         y="385"
         width="74"
         height="32"
         class="terminal"
         rx="10"/>
   <text class="terminal" x="59" y="405">STOREL</text>
   <a xmlns:xlink="http://www.w3.org/1999/xlink"
      xlink:href="#NUMBER"
      xlink:title="NUMBER">
      <rect x="145" y="387" width="72" height="32"/>
      <rect x="143" y="385" width="72" height="32" class="nonterminal"/>
      <text class="nonterminal" x="153" y="405">NUMBER</text>
   </a>
   <rect x="51" y="431" width="56" height="32" rx="10"/>
   <rect x="49"
         y="429"
         width="56"
         height="32"
         class="terminal"
         rx="10"/>
   <text class="terminal" x="59" y="449">IADD</text>
   <rect x="51" y="475" width="54" height="32" rx="10"/>
   <rect x="49"
         y="473"
         width="54"
         height="32"
         class="terminal"
         rx="10"/>
   <text class="terminal" x="59" y="493">ISUB</text>
   <rect x="51" y="519" width="56" height="32" rx="10"/>
   <rect x="49"
         y="517"
         width="56"
         height="32"
         class="terminal"
         rx="10"/>
   <text class="terminal" x="59" y="537">IMUL</text>
   <rect x="51" y="563" width="52" height="32" rx="10"/>
   <rect x="49"
         y="561"
         width="52"
         height="32"
         class="terminal"
         rx="10"/>
   <text class="terminal" x="59" y="581">IDIV</text>
   <rect x="51" y="607" width="54" height="32" rx="10"/>
   <rect x="49"
         y="605"
         width="54"
         height="32"
         class="terminal"
         rx="10"/>
   <text class="terminal" x="59" y="625">INEG</text>
   <rect x="51" y="651" width="58" height="32" rx="10"/>
   <rect x="49"
         y="649"
         width="58"
         height="32"
         class="terminal"
         rx="10"/>
   <text class="terminal" x="59" y="669">IMOD</text>
   <rect x="51" y="695" width="46" height="32" rx="10"/>
   <rect x="49"
         y="693"
         width="46"
         height="32"
         class="terminal"
         rx="10"/>
   <text class="terminal" x="59" y="713">IEQ</text>
   <rect x="51" y="739" width="44" height="32" rx="10"/>
   <rect x="49"
         y="737"
         width="44"
         height="32"
         class="terminal"
         rx="10"/>
   <text class="terminal" x="59" y="757">INE</text>
   <rect x="51" y="783" width="42" height="32" rx="10"/>
   <rect x="49"
         y="781"
         width="42"
         height="32"
         class="terminal"
         rx="10"/>
   <text class="terminal" x="59" y="801">ILT</text>
   <rect x="51" y="827" width="42" height="32" rx="10"/>
   <rect x="49"
         y="825"
         width="42"
         height="32"
         class="terminal"
         rx="10"/>
   <text class="terminal" x="59" y="845">ILE</text>
   <rect x="51" y="871" width="44" height="32" rx="10"/>
   <rect x="49"
         y="869"
         width="44"
         height="32"
         class="terminal"
         rx="10"/>
   <text class="terminal" x="59" y="889">IGT</text>
   <rect x="51" y="915" width="44" height="32" rx="10"/>
   <rect x="49"
         y="913"
         width="44"
         height="32"
         class="terminal"
         rx="10"/>
   <text class="terminal" x="59" y="933">IGE</text>
   <rect x="51" y="959" width="46" height="32" rx="10"/>
   <rect x="49"
         y="957"
         width="46"
         height="32"
         class="terminal"
         rx="10"/>
   <text class="terminal" x="59" y="977">JMP</text>
   <a xmlns:xlink="http://www.w3.org/1999/xlink"
      xlink:href="#NUMBER"
      xlink:title="NUMBER">
      <rect x="137" y="959" width="72" height="32"/>
      <rect x="135" y="957" width="72" height="32" class="nonterminal"/>
      <text class="nonterminal" x="145" y="977">NUMBER</text>
   </a>
   <a xmlns:xlink="http://www.w3.org/1999/xlink"
      xlink:href="#IDENT"
      xlink:title="IDENT">
      <rect x="137" y="1003" width="58" height="32"/>
      <rect x="135" y="1001" width="58" height="32" class="nonterminal"/>
      <text class="nonterminal" x="145" y="1021">IDENT</text>
   </a>
   <rect x="51" y="1047" width="44" height="32" rx="10"/>
   <rect x="49"
         y="1045"
         width="44"
         height="32"
         class="terminal"
         rx="10"/>
   <text class="terminal" x="59" y="1065">JPZ</text>
   <a xmlns:xlink="http://www.w3.org/1999/xlink"
      xlink:href="#NUMBER"
      xlink:title="NUMBER">
      <rect x="135" y="1047" width="72" height="32"/>
      <rect x="133" y="1045" width="72" height="32" class="nonterminal"/>
      <text class="nonterminal" x="143" y="1065">NUMBER</text>
   </a>
   <a xmlns:xlink="http://www.w3.org/1999/xlink"
      xlink:href="#IDENT"
      xlink:title="IDENT">
      <rect x="135" y="1091" width="58" height="32"/>
      <rect x="133" y="1089" width="58" height="32" class="nonterminal"/>
      <text class="nonterminal" x="143" y="1109">IDENT</text>
   </a>
   <rect x="51" y="1135" width="54" height="32" rx="10"/>
   <rect x="49"
         y="1133"
         width="54"
         height="32"
         class="terminal"
         rx="10"/>
   <text class="terminal" x="59" y="1153">CALL</text>
   <a xmlns:xlink="http://www.w3.org/1999/xlink"
      xlink:href="#NUMBER"
      xlink:title="NUMBER">
      <rect x="145" y="1135" width="72" height="32"/>
      <rect x="143" y="1133" width="72" height="32" class="nonterminal"/>
      <text class="nonterminal" x="153" y="1153">NUMBER</text>
   </a>
   <a xmlns:xlink="http://www.w3.org/1999/xlink"
      xlink:href="#IDENT"
      xlink:title="IDENT">
      <rect x="145" y="1179" width="58" height="32"/>
      <rect x="143" y="1177" width="58" height="32" class="nonterminal"/>
      <text class="nonterminal" x="153" y="1197">IDENT</text>
   </a>
   <rect x="51" y="1223" width="64" height="32" rx="10"/>
   <rect x="49"
         y="1221"
         width="64"
         height="32"
         class="terminal"
         rx="10"/>
   <text class="terminal" x="59" y="1241">ALLOC</text>
   <a xmlns:xlink="http://www.w3.org/1999/xlink"
      xlink:href="#NUMBER"
      xlink:title="NUMBER">
      <rect x="135" y="1223" width="72" height="32"/>
      <rect x="133" y="1221" width="72" height="32" class="nonterminal"/>
      <text class="nonterminal" x="143" y="1241">NUMBER</text>
   </a>
   <rect x="51" y="1267" width="46" height="32" rx="10"/>
   <rect x="49"
         y="1265"
         width="46"
         height="32"
         class="terminal"
         rx="10"/>
   <text class="terminal" x="59" y="1285">RET</text>
   <rect x="51" y="1311" width="64" height="32" rx="10"/>
   <rect x="49"
         y="1309"
         width="64"
         height="32"
         class="terminal"
         rx="10"/>
   <text class="terminal" x="59" y="1329">CLEAN</text>
   <a xmlns:xlink="http://www.w3.org/1999/xlink"
      xlink:href="#NUMBER"
      xlink:title="NUMBER">
      <rect x="135" y="1311" width="72" height="32"/>
      <rect x="133" y="1309" width="72" height="32" class="nonterminal"/>
      <text class="nonterminal" x="143" y="1329">NUMBER</text>
   </a>
   <rect x="51" y="1355" width="72" height="32" rx="10"/>
   <rect x="49"
         y="1353"
         width="72"
         height="32"
         class="terminal"
         rx="10"/>
   <text class="terminal" x="59" y="1373">CPRINT</text>
   <rect x="51" y="1399" width="56" height="32" rx="10"/>
   <rect x="49"
         y="1397"
         width="56"
         height="32"
         class="terminal"
         rx="10"/>
   <text class="terminal" x="59" y="1417">HALT</text>
   <path class="line"
         d="m17 17 h2 m20 0 h10 m64 0 h10 m20 0 h10 m0 0 h36 m-66 0 h20 m46 0 h20 m-86 0 q10 0 10 10 m66 0 q0 -10 10 -10 m-76 10 v12 m66 0 v-12 m-66 12 q0 10 10 10 m46 0 q10 0 10 -10 m-56 10 h10 m26 0 h10 m20 -32 h10 m72 0 h10 m-282 0 h20 m262 0 h20 m-302 0 q10 0 10 10 m282 0 q0 -10 10 -10 m-292 10 v56 m282 0 v-56 m-282 56 q0 10 10 10 m262 0 q10 0 10 -10 m-272 10 h10 m48 0 h10 m0 0 h194 m-272 -10 v20 m282 0 v-20 m-282 20 v24 m282 0 v-24 m-282 24 q0 10 10 10 m262 0 q10 0 10 -10 m-272 10 h10 m48 0 h10 m0 0 h194 m-272 -10 v20 m282 0 v-20 m-282 20 v24 m282 0 v-24 m-282 24 q0 10 10 10 m262 0 q10 0 10 -10 m-272 10 h10 m68 0 h10 m0 0 h10 m72 0 h10 m0 0 h82 m-272 -10 v20 m282 0 v-20 m-282 20 v24 m282 0 v-24 m-282 24 q0 10 10 10 m262 0 q10 0 10 -10 m-272 10 h10 m76 0 h10 m0 0 h10 m72 0 h10 m0 0 h74 m-272 -10 v20 m282 0 v-20 m-282 20 v24 m282 0 v-24 m-282 24 q0 10 10 10 m262 0 q10 0 10 -10 m-272 10 h10 m68 0 h10 m0 0 h10 m72 0 h10 m0 0 h82 m-272 -10 v20 m282 0 v-20 m-282 20 v24 m282 0 v-24 m-282 24 q0 10 10 10 m262 0 q10 0 10 -10 m-272 10 h10 m74 0 h10 m0 0 h10 m72 0 h10 m0 0 h76 m-272 -10 v20 m282 0 v-20 m-282 20 v24 m282 0 v-24 m-282 24 q0 10 10 10 m262 0 q10 0 10 -10 m-272 10 h10 m66 0 h10 m0 0 h10 m72 0 h10 m0 0 h84 m-272 -10 v20 m282 0 v-20 m-282 20 v24 m282 0 v-24 m-282 24 q0 10 10 10 m262 0 q10 0 10 -10 m-272 10 h10 m74 0 h10 m0 0 h10 m72 0 h10 m0 0 h76 m-272 -10 v20 m282 0 v-20 m-282 20 v24 m282 0 v-24 m-282 24 q0 10 10 10 m262 0 q10 0 10 -10 m-272 10 h10 m56 0 h10 m0 0 h186 m-272 -10 v20 m282 0 v-20 m-282 20 v24 m282 0 v-24 m-282 24 q0 10 10 10 m262 0 q10 0 10 -10 m-272 10 h10 m54 0 h10 m0 0 h188 m-272 -10 v20 m282 0 v-20 m-282 20 v24 m282 0 v-24 m-282 24 q0 10 10 10 m262 0 q10 0 10 -10 m-272 10 h10 m56 0 h10 m0 0 h186 m-272 -10 v20 m282 0 v-20 m-282 20 v24 m282 0 v-24 m-282 24 q0 10 10 10 m262 0 q10 0 10 -10 m-272 10 h10 m52 0 h10 m0 0 h190 m-272 -10 v20 m282 0 v-20 m-282 20 v24 m282 0 v-24 m-282 24 q0 10 10 10 m262 0 q10 0 10 -10 m-272 10 h10 m54 0 h10 m0 0 h188 m-272 -10 v20 m282 0 v-20 m-282 20 v24 m282 0 v-24 m-282 24 q0 10 10 10 m262 0 q10 0 10 -10 m-272 10 h10 m58 0 h10 m0 0 h184 m-272 -10 v20 m282 0 v-20 m-282 20 v24 m282 0 v-24 m-282 24 q0 10 10 10 m262 0 q10 0 10 -10 m-272 10 h10 m46 0 h10 m0 0 h196 m-272 -10 v20 m282 0 v-20 m-282 20 v24 m282 0 v-24 m-282 24 q0 10 10 10 m262 0 q10 0 10 -10 m-272 10 h10 m44 0 h10 m0 0 h198 m-272 -10 v20 m282 0 v-20 m-282 20 v24 m282 0 v-24 m-282 24 q0 10 10 10 m262 0 q10 0 10 -10 m-272 10 h10 m42 0 h10 m0 0 h200 m-272 -10 v20 m282 0 v-20 m-282 20 v24 m282 0 v-24 m-282 24 q0 10 10 10 m262 0 q10 0 10 -10 m-272 10 h10 m42 0 h10 m0 0 h200 m-272 -10 v20 m282 0 v-20 m-282 20 v24 m282 0 v-24 m-282 24 q0 10 10 10 m262 0 q10 0 10 -10 m-272 10 h10 m44 0 h10 m0 0 h198 m-272 -10 v20 m282 0 v-20 m-282 20 v24 m282 0 v-24 m-282 24 q0 10 10 10 m262 0 q10 0 10 -10 m-272 10 h10 m44 0 h10 m0 0 h198 m-272 -10 v20 m282 0 v-20 m-282 20 v24 m282 0 v-24 m-282 24 q0 10 10 10 m262 0 q10 0 10 -10 m-272 10 h10 m46 0 h10 m20 0 h10 m72 0 h10 m-112 0 h20 m92 0 h20 m-132 0 q10 0 10 10 m112 0 q0 -10 10 -10 m-122 10 v24 m112 0 v-24 m-112 24 q0 10 10 10 m92 0 q10 0 10 -10 m-102 10 h10 m58 0 h10 m0 0 h14 m20 -44 h64 m-272 -10 v20 m282 0 v-20 m-282 20 v68 m282 0 v-68 m-282 68 q0 10 10 10 m262 0 q10 0 10 -10 m-272 10 h10 m44 0 h10 m20 0 h10 m72 0 h10 m-112 0 h20 m92 0 h20 m-132 0 q10 0 10 10 m112 0 q0 -10 10 -10 m-122 10 v24 m112 0 v-24 m-112 24 q0 10 10 10 m92 0 q10 0 10 -10 m-102 10 h10 m58 0 h10 m0 0 h14 m20 -44 h66 m-272 -10 v20 m282 0 v-20 m-282 20 v68 m282 0 v-68 m-282 68 q0 10 10 10 m262 0 q10 0 10 -10 m-272 10 h10 m54 0 h10 m20 0 h10 m72 0 h10 m-112 0 h20 m92 0 h20 m-132 0 q10 0 10 10 m112 0 q0 -10 10 -10 m-122 10 v24 m112 0 v-24 m-112 24 q0 10 10 10 m92 0 q10 0 10 -10 m-102 10 h10 m58 0 h10 m0 0 h14 m20 -44 h56 m-272 -10 v20 m282 0 v-20 m-282 20 v68 m282 0 v-68 m-282 68 q0 10 10 10 m262 0 q10 0 10 -10 m-272 10 h10 m64 0 h10 m0 0 h10 m72 0 h10 m0 0 h86 m-272 -10 v20 m282 0 v-20 m-282 20 v24 m282 0 v-24 m-282 24 q0 10 10 10 m262 0 q10 0 10 -10 m-272 10 h10 m46 0 h10 m0 0 h196 m-272 -10 v20 m282 0 v-20 m-282 20 v24 m282 0 v-24 m-282 24 q0 10 10 10 m262 0 q10 0 10 -10 m-272 10 h10 m64 0 h10 m0 0 h10 m72 0 h10 m0 0 h86 m-272 -10 v20 m282 0 v-20 m-282 20 v24 m282 0 v-24 m-282 24 q0 10 10 10 m262 0 q10 0 10 -10 m-272 10 h10 m72 0 h10 m0 0 h170 m-272 -10 v20 m282 0 v-20 m-282 20 v24 m282 0 v-24 m-282 24 q0 10 10 10 m262 0 q10 0 10 -10 m-272 10 h10 m56 0 h10 m0 0 h186 m23 -1396 h-3"/>
   <polygon points="331 17 339 13 339 21"/>
   <polygon points="331 17 323 13 323 21"/>
</svg>
